<svg width="102" height="108" viewBox="0 0 102 108" fill="none" xmlns="http://www.w3.org/2000/svg">
<rect width="102" height="108" fill="white"/>
<g filter="url(#filter0_d_157_179)">
<path d="M42 9C46.1249 9.00001 50.0834 9.54168 53.875 10.625C57.7083 11.6667 61.2917 13.1667 64.625 15.125C67.9583 17.0833 70.9792 19.4375 73.6875 22.1875C76.3958 24.8958 78.7292 27.9167 80.6875 31.25C82.6458 34.5416 84.1458 38.1042 85.1875 41.9375C86.2708 45.7291 86.8125 49.6875 86.8125 53.8125C86.8125 57.9374 86.2708 61.9167 85.1875 65.75C84.1459 69.5416 82.6458 73.1042 80.6875 76.4375C78.7292 79.7291 76.3958 82.75 73.6875 85.5C70.9792 88.2083 67.9583 90.5417 64.625 92.5C61.2917 94.4583 57.7083 95.9792 53.875 97.0625C50.0834 98.1042 46.1249 98.625 42 98.625H15V9H42ZM33.0625 80.6875H42C45.7083 80.6875 49.1875 80 52.4375 78.625C55.7291 77.2083 58.5834 75.2916 61 72.875C63.4583 70.4167 65.375 67.5624 66.75 64.3125C68.1666 61.0209 68.875 57.5208 68.875 53.8125C68.875 50.1042 68.1666 46.625 66.75 43.375C65.375 40.125 63.4583 37.2916 61 34.875C58.5834 32.4167 55.7291 30.4792 52.4375 29.0625C49.1875 27.6459 45.7083 26.9375 42 26.9375H33.0625V80.6875Z" fill="#2B6BF4"/>
</g>
<defs>
<filter id="filter0_d_157_179" x="11" y="9" width="79.8125" height="97.625" filterUnits="userSpaceOnUse" color-interpolation-filters="sRGB">
<feFlood flood-opacity="0" result="BackgroundImageFix"/>
<feColorMatrix in="SourceAlpha" type="matrix" values="0 0 0 0 0 0 0 0 0 0 0 0 0 0 0 0 0 0 127 0" result="hardAlpha"/>
<feOffset dy="4"/>
<feGaussianBlur stdDeviation="2"/>
<feComposite in2="hardAlpha" operator="out"/>
<feColorMatrix type="matrix" values="0 0 0 0 0 0 0 0 0 0 0 0 0 0 0 0 0 0 0.25 0"/>
<feBlend mode="normal" in2="BackgroundImageFix" result="effect1_dropShadow_157_179"/>
<feBlend mode="normal" in="SourceGraphic" in2="effect1_dropShadow_157_179" result="shape"/>
</filter>
</defs>
</svg>
